<svg id="Layer_1" data-name="Layer 1" xmlns="http://www.w3.org/2000/svg" viewBox="0 0 1024 1024"><defs><style>.cls-1{fill:#fff;}</style></defs><path class="cls-1" d="M492,904c-1.46-.4-3-1.3-4.37-1.1-11.67,1.67-18.47-5-25.46-13.1C405,823.42,368.52,747,351.2,661.31A512.34,512.34,0,0,1,341.2,535c.12-2.49.44-5,.71-7.91a176.13,176.13,0,0,1,71.47,11.55C462.93,557.71,493.89,595.11,515,642.2c14.3,31.89,20,66.22,29.17,99.59C556,784.88,574.71,824.29,611.46,852c12.88,9.72,27.77,16.78,41.85,25.12a42,42,0,0,1-4.49,2.13c-35.39,13-71.81,21.21-109.51,23.46a62.41,62.41,0,0,0-7.46,1.33Z"/><path class="cls-1" d="M119.72,487.38q3.06-21.92,6.11-43.81c.17-1.27.3-2.54.52-3.79,4.92-27,4.69-27.3,27.57-42.84a335.55,335.55,0,0,1,151.82-56.47c15.62-1.81,31.36-2.58,48.61-4a540.07,540.07,0,0,0-43.29,159.1c-13.39,2.93-26.9,5.26-40.06,8.85-45.52,12.43-83.22,35.79-106.16,78.65-10,18.62-15.42,38.74-17.59,59.75a13.53,13.53,0,0,1-2.4,7c-2-5.47-4-10.89-5.84-16.4-1.91-5.81-4.19-11.58-5.26-17.56-4.45-24.79-8.51-49.65-12.73-74.48-.37-2.2-.86-4.38-1.3-6.57Z"/><path class="cls-1" d="M342.79,493.16c6-27,10.58-53.38,18.11-78.93,7-23.87,17.31-46.78,26-70.17,1.61-4.35,4-5.48,8.61-5,98.14,10,187.4,43.51,266.6,102.34Q774.66,525,831.78,653.57c7,15.82,12.8,32.19,18.79,48.43a11.05,11.05,0,0,1-.63,8.34A389.73,389.73,0,0,1,710.17,850a16.62,16.62,0,0,1-9.33,2c-49.29-4.37-84.73-29.27-107.65-72.81-14.57-27.67-20.61-57.95-27.73-87.94-9.31-39.26-23.62-76.42-47.11-109.59q-51.12-72.19-138.72-84.95C368.33,495,356.88,494.47,342.79,493.16Z"/><path class="cls-1" d="M873.35,663.68c-89.82-204.75-244-324.87-467-357.68,8.09-12.57,15.85-25.26,24.26-37.51,6.63-9.67,14.3-18.62,21-28.25,3.41-4.91,6.9-6,12.78-4.86,38.13,7.21,76.46,12.73,115.42,13.12,24.39.24,47.23-6,70.32-12.91,38-11.33,76.37-12.64,114.36.78a135.83,135.83,0,0,1,54.62,35.56c34.83,37.22,55.16,82.43,69.09,130.52,25.19,87,20.87,172.86-12.94,257.05C874.65,660.9,874,662.26,873.35,663.68Z"/><path class="cls-1" d="M308.27,528.28c-4.35,136,30.8,257.43,112.29,365.77-17-5.54-34.3-10.24-50.9-16.76C298,849.13,239.68,803.62,194,741.65c-8.4-11.4-9.55-24.51-11.87-37.39-4.61-25.6-4.9-51.36,1-76.77,9.55-41,35.39-68.27,73.83-83.53C273.11,537.55,290.27,533.69,308.27,528.28Z"/><path class="cls-1" d="M359.45,150.39c4.44,39.19,27,61.87,61.64,75-1.43,2.15-2.5,3.73-3.54,5.33-14.73,22.65-29.51,45.26-44.12,68-2.14,3.32-3.66,6.08-8.57,6-75.52-1.82-146.15,15.45-211.16,54.46a32.77,32.77,0,0,1-3.76,1.44C193,262.94,262.27,193.78,359.45,150.39Z"/><path class="cls-1" d="M742.51,195.91c-14.09-.56-27.8-1.57-41.5-1.54-26,0-50.89,5.8-75.53,14a145.75,145.75,0,0,1-38.85,6.88c-34.54,1.63-68.57-3.75-101.26-9.25,6.7-7.56,12.71-16.61,20.8-23.06,23.27-18.58,47.34-36.16,71.24-53.94a10.9,10.9,0,0,1,7.55-2c57.19,10.8,109.47,33.08,156.53,67.42C741.84,194.63,742,195.14,742.51,195.91Z"/><path class="cls-1" d="M530.57,120.58c-9.75,7.66-18.51,13.71-26.31,20.83q-27.64,25.29-54.41,51.53c-4.06,4-7.27,5.06-12.54,3.35-21.8-7-39.35-18.32-44.1-42.79-2.34-12.05-1.43-13.2,9.93-17C442.07,123.4,482.21,119.34,523,120,524.93,120.07,526.84,120.31,530.57,120.58Z"/></svg>