<svg id="Layer_1" data-name="Layer 1" xmlns="http://www.w3.org/2000/svg" viewBox="0 0 1024 1024"><defs><style>.cls-1{fill:#fff;}</style></defs><path class="cls-1" d="M876.46,852.34a36.24,36.24,0,0,0,4.42-6.42c1.24-2.28,2.48-4.53,3.75-6.75l.07-.13-.07.13,1.08-1.88c4.77-8.16,3.23-15.15-3.37-21.29-3.85-3.58-7.94-6.92-12.07-10.16-17.06-13.34-34.36-26.38-51.19-40-9.2-7.45-17.89-15.6-26.38-23.88-26.88-26.2-54.07-52.12-80.05-79.19-9.11-9.49-18.62-21.09-21.79-33.32-11.25-43.32-20.29-87.22-29.28-131.09-7.2-35.13-11.05-71.07-20.08-105.68-15.91-60.9-34.74-120.94-75.46-171.24-22.63-27.95-47.71-52.83-80.3-68.93C430.85,125.4,377.16,132.58,324.39,159c-45.91,23-82.14,57.87-116.33,95.14-22.17,24.17-40.64,51-54,81-24.75,55.46-26.55,110.49,6.09,163.58C188,544,228.2,576.57,275.36,599.55c45.39,22.11,93.68,37.15,143.1,47.53,63.78,13.39,127.78,25.76,191.8,38,20.91,4,39.26,13.22,53.82,27.67,32,31.76,62.84,64.73,93.63,97.69,17.71,19,36.26,37.35,48.64,60.72,2.4,4.53,6.48,8.29,10.22,12,6.06,6,12.93,7.46,20.6,2.7,8.37-5.2,23.85-16.73,30.82-23.69ZM451.89,259.59a21.72,21.72,0,0,1,30.49,3.24c6.92,8.6,6.13,20.65-2.13,28.76-8.67,8.51-21.61,8.43-30-.18A21.53,21.53,0,0,1,451.89,259.59Zm44.77,78.35c-7.4-8.29-6.74-23,1.37-30.6,8.46-7.92,22-7.37,30.29,1.23,8.49,8.75,8.29,21.84-.45,30S504.28,346.48,496.66,337.94ZM355.59,261.19c8.89-8.48,22.91-8.27,31,.48,8,8.6,7.39,21.84-1.27,30.2s-21.53,8-30.07-.77S346.75,269.62,355.59,261.19ZM496.88,401.92a21.17,21.17,0,0,1,30.08.13c8.64,8.57,8.75,21.32.28,30-8.31,8.48-21.88,9-30.15,1.07S488.65,410.29,496.88,401.92Zm-47-16.12c-8-8.26-7.76-22.1.52-30.43,8.57-8.63,21.37-8.55,30,.18s8.89,21.61.53,30.1C472.43,394.29,458.15,394.36,449.86,385.8Zm-46.77-77.36c8.69-8.65,21.44-8.77,29.93-.27s8.72,21.73.53,30.08a22.36,22.36,0,0,1-31.08.26C394.3,330.42,394.58,316.91,403.09,308.44Zm.15,94.15c8.7-8.42,21.57-8.19,30,.52s8.44,21.74.11,30.13a21.79,21.79,0,0,1-31-.36C394.36,424.57,394.76,410.8,403.24,402.59Zm-48.46-17.53c-8.32-8.83-7.62-21,1.71-29.79,9.07-8.53,20.4-8.51,29,.07,8.93,9,9,22.26.25,30.81S363.31,394.09,354.78,385.06Zm95.9,64.64c8.6-8.14,21.69-7.75,30.12.91s8.35,21.64-.22,30.06a21.24,21.24,0,0,1-30.18.14C441.92,472.26,442.05,457.89,450.68,449.7ZM308.46,308.35c8.63-8.6,21.47-8.72,29.8-.26s8.46,22,.54,30.14c-8.13,8.38-22.8,8.44-31,.13S300,316.79,308.46,308.35Zm94.11,189.26a21.86,21.86,0,0,1,30.95.33,21.41,21.41,0,0,1-.58,30.15c-8.6,8.43-21.37,8.25-29.95-.44S394.3,505.89,402.57,497.61ZM355.47,480c-8.73-8.87-8.76-21.49-.08-29.93a21.47,21.47,0,0,1,30.21.06,21.7,21.7,0,0,1-.21,30.94C376.73,489.48,364.32,489,355.47,480ZM261,356.07c9.08-9.29,20.57-9.57,29.67-.72,9.29,9,9.61,22,.75,30.72-8.49,8.36-21.41,8.26-30.16-.24C252.21,377.1,252.11,365.12,261,356.07Zm48.11,46.34c8.63-8.24,20.68-8.17,29,.16a21.68,21.68,0,0,1,.21,30.81,21.27,21.27,0,0,1-30-.43C299.5,424.21,299.85,411.2,309.06,402.41Zm-48.44,48.08a21.55,21.55,0,0,1,31-.12c8.52,8.6,8.33,21.29-.46,30s-21.21,8.75-30,.11S252.12,459.18,260.62,450.49ZM338.55,528c-8.5,8.75-21.1,8.74-29.91,0s-9.09-21.81-1-30.19,23.42-8.49,31.36-.32C346.82,505.48,346.59,519.73,338.55,528ZM628.16,632.31c-5,5-9.92,4.2-16,1.21-22-10.75-46-13.17-69.91-15.94-17.66-2.05-35.26-4.54-52.87-7-3.89-.53-7.7-1.64-11.54-2.46l-.2-2.48c62.29-22.88,105.78-65,129.71-127l2.61.28c1.39,8.43,3.05,16.84,4.13,25.31,3.28,25.81,5.86,51.71,9.7,77.42a155.23,155.23,0,0,0,9,32.22C635.8,621.83,633.41,627.1,628.16,632.31Z"/></svg>