<svg id="Layer_1" data-name="Layer 1" xmlns="http://www.w3.org/2000/svg" viewBox="0 0 1024 1024"><defs><style>.cls-1{fill:#fff;}</style></defs><path class="cls-1" d="M904.54,510.18c1,216.07-173.3,392.64-388.9,393.89-219.06,1.27-395.21-172.63-396.18-391.14-1-215.39,174.26-392,390-393C726.84,118.88,903.51,293.4,904.54,510.18ZM595.15,397c-8.37.67-19.69,5.41-23.78,12-35.89,57.45-70.72,115.58-105,174-3.47,5.91-4.22,16.41-1.38,22.52q25.42,54.88,53.65,108.45c3.21,6.11,11.93,13.31,18.07,13.28,59.92-.24,119.86-1.18,179.71-3.92,9.38-.43,21.51-8.76,26.88-17,21.94-33.74,43.08-68.16,61.6-103.85,6.26-12,9-30.43,4.55-42.75-15.68-43.48-35.22-85.57-53.19-128.23-9.25-22-23.16-31.5-48.33-31.5-51.18,0-32.94,0-48.91-.79M417.71,580.3c13.88.66,22-4.47,29.18-16.58Q496.8,479.21,548.6,395.85c7.29-11.73,8.57-20.79,1.37-33.21q-27.44-47.38-52.14-96.32c-6.67-13.17-15.2-20.22-29.93-19.34-46.21,2.77-92.49,4.87-138.58,8.93-8.4.74-18.82,7.64-23.67,14.83-28.5,42.18-56.37,84.83-82.57,128.45-5.4,9-6.61,24-3.25,34.09,11,33.09,25.91,64.89,37.76,97.74,14.68,40.72,40.06,49.7,84.83,50m81.85,239.69c18.85,44.64,30.06,53.47,75.13,53.61,25.78.09,51.89-1.44,77.27-5.68,54.08-9,103.2-30.59,148.34-62.23,20-14,7.13-27.82,4.33-42.25-2.91-15-12.9-11.94-24.29-11.63-54.72,1.49-109.49,1.27-164.22,2.29-10.84.2-23.69,0-32.08,5.46C480.09,778.87,453,799.88,424.27,820.72Zm-166-104.16c3.84-37.19,7.89-72.64,10.76-108.18.49-6-3.47-12.73-6.49-18.54-15.44-29.66-32.11-58.7-46.62-88.8-9.45-19.59-16-40.61-23.62-60.53-38.61,5.87-39.23,5.81-42.32,41.68-6.32,73.39,8.92,142.4,44.47,206.84C211.68,720.35,220.61,724,258.23,716.56Zm503.35-435.7c-1.88,26.22-5.14,50.45-4.77,74.62.22,14.27,4.22,29.31,9.93,42.53,21.66,50.14,45.66,99.3,66.61,149.73,5.6,13.5,10.51,19.49,25.35,18.72,16.46-.86,15.14-12.5,15.91-22.59,6.64-86.74-15-165.92-63.31-238.26C799.45,287.86,784.07,280.26,761.58,280.86ZM593.74,181.28c-7.12-22.76-23.68-28.84-44.14-30.55-78-6.5-151.29,8.38-219.15,47.53-7,4-15.89,14-15.16,20.1,1.84,15.41,15.31,9.25,25.49,8.9,48.44-1.64,96.89-2.89,145.34-4.27,8.25-.23,17.62,2.09,24.56-1C538.23,209.59,565,195.52,593.74,181.28ZM239.6,748.71C270.31,795.56,363.82,854.2,410,856.5c-7.46-22.84-17.88-40.31-42.77-50.9-26.81-11.4-51.88-28.88-74.42-47.66C275.87,743.83,260.58,741.5,239.6,748.71ZM621.12,167.1c4.81,19.82,119.73,86.64,140.34,81C719.45,210.75,675.36,182.32,621.12,167.1Z"/></svg>