<svg id="Layer_1" data-name="Layer 1" xmlns="http://www.w3.org/2000/svg" viewBox="0 0 1024 1024"><defs><style>.cls-1{fill:#fff;}</style></defs><path class="cls-1" d="M338.65,136.11c63.54,1.16,111.93,22.29,153.87,58,73.24,62.35,117.69,141.39,128.87,237.16,5.46,46.69,13.13,92.15,33.8,134.74,16.25,33.48,37.47,63.63,61.06,92.22,1.65,2,4.23,4.74,6.29,4.67,12.29-.42,19.48,7.59,27.07,15.19q73.26,73.32,146.54,146.61c15.76,15.78,15.8,27.65.13,43.38-8.78,8.81-17.49,17.69-26.43,26.33-11.8,11.4-25.09,11.66-36.59.22q-78.59-78.24-156.81-156.86c-3.27-3.28-7.14-8.1-7.09-12.15.16-11-7.44-15.42-14.33-21-50.45-40.81-105.85-71.51-170.73-82.06-27.57-4.49-55.93-5.21-82.94-11.76-96.14-23.34-175.43-73.22-227.33-159-87.54-144.62,13.43-283.25,127-310C315.75,138.42,331,137.25,338.65,136.11ZM584,436.41c-11.57-94.23-59.49-182.16-156.52-239.3-30.48-18-64.35-24.66-99.82-20.9-90.87,9.62-191.45,118.06-128.56,239C252.3,517.61,342.51,570.69,456.41,578.57,533.41,583.9,585.6,528.79,584,436.41Zm68.58,211.34c-1.44-5.73-1.76-9.43-3.25-12.57-12.64-26.47-25.48-52.84-38.27-79.25-4.69-9.69-10-10.41-17.29-2.89q-17.65,18.12-35.76,35.8c-7.62,7.46-7,12.64,2.73,17.33,26.1,12.62,52.17,25.3,78.34,37.76C642.54,645.58,646.56,646.09,652.57,647.75Z"/><path class="cls-1" d="M538.79,341l-27.3-33-43.06,43.38L510,391.54l36.64-38.42c8.75,11.87,8.85,12,1,19.53-9.88,9.57-19.94,19-29.82,28.35l43.07,42.39,10.32-8.63V471.7L561.64,464l-42.9,42.85,28.57,24.74-10.7,10.63L510.72,512.6,468.45,556l7.91,10H440.53l7.58-9.89L405.47,515c-8,8-18.11,17.21-27.19,27.37-5.82,6.51-11,7.13-18.32,1.1l39.4-36.75L356.2,463.68,313.61,506l32.2,27.74-2.89,3.49c-10.83-6.4-22.43-11.78-32.3-19.42-18.7-14.47-32.72-33.9-50.22-49.74-2.88-2.62-5.11-7.06-10.25-2.83-.33.28-7.86-6.94-7.56-7.34,4.76-6.38-1.22-8.83-4.21-11.75-13.12-12.79-26.31-25.31-32.89-43.23-2.21-6-2.14-9.76,2.77-14.3,12.63-11.7,24.71-24,36.85-35.87L202.23,311l-6.14,4.23c-.34-1.36-.91-2.33-.74-3.15,2-9.69,4.18-18.58,12.86-25.76C221.44,275.36,233,262.4,245.56,250l-10.42-11.91,7.29-8.2,10.63,8.83c14.49-13.65,28-27.49,42.83-39.82,6.14-5.12,15-7,22.56-10.38l1.56,2.36L315.52,198l42.14,43.18c12-12.59,24.14-24.86,35.75-37.6,4.37-4.79,7.95-5.43,14.19-3.14,17.24,6.32,29.57,18.6,41.91,31.25,3.51,3.6,6.14,10.82,14,5.76,1.05-.68,4.85,2.92,8,5-1.24,2.62-2.32,4.9-3.72,7.83,12.73,12.68,24.67,26.85,38.9,38.15,17,13.53,25.11,32.12,35.49,49.61Zm-284.1,21.48c-13.45,13.29-27.3,27-40.82,40.34l39.83,40,41.17-40.53C281.49,389.09,267.84,375.55,254.69,362.52ZM497.48,301.2c-13.34-13.41-27.05-27.19-39.64-39.83l-39.62,39.74,39.5,40ZM345.19,353.28,304.8,312.54l-38.44,38.24,40.46,40.45Zm50.86,49.48-38.86-39.68L316.48,402.5l40,40.92Zm62.51,142L498,505.42,458.57,464.7l-40.88,39.73C431.22,517.78,444.92,531.3,458.56,544.78Zm-152.42-131-40.53,39.66,39,39.9L345.32,453Zm102-.61L367,453.54l39.57,39.79,40.94-40.7Zm-.5-204.07-39.45,39.66,39,40.35,40.72-39.58Zm-193.33,91,40.09,40.68,40.27-40.36-40.42-40.42Zm295.8,114-40.23,39.6,38.28,39.56,41.14-40.22Zm-52.34,28.2,39.48-38.95c-13.26-13.62-26.81-27.56-39-40.05L418.59,402.8ZM357.53,261l-40.8,39.85,38.71,39L395.8,300Zm-11.32-10.89-40.77-40.33L266.7,248.84,306,290ZM407,311.33,366.9,351.12l40.6,40.47,39.93-39.52Z"/></svg>