<svg id="Layer_1" data-name="Layer 1" xmlns="http://www.w3.org/2000/svg" viewBox="0 0 1777.53 555.1"><defs><style>.cls-1{fill:#013ac9;}</style></defs><path d="M665.07,118.41h96.7L740.71,463.3h-75l4.53-44.16H628.84L614.57,463.3h-75Zm12,232.34L689.3,231.86,650.8,350.75Z"/><path d="M963.32,347.13l-6.56,30.57a154.94,154.94,0,0,1-12.57,37,96,96,0,0,1-21.29,28.53,91.47,91.47,0,0,1-31.48,18.46q-18.45,6.55-43.14,6.57a.19.19,0,0,0-.22.22q-20.16,0-34.08-4.3T791.22,452a45.62,45.62,0,0,1-12.8-19.36,77.5,77.5,0,0,1-4-25.48,123.81,123.81,0,0,1,.91-14.83q.9-7.59,2.71-16l36.24-171.2a163.8,163.8,0,0,1,12.45-37.36,93.65,93.65,0,0,1,21.29-29A94.63,94.63,0,0,1,879.65,120q18.45-6.8,43.37-6.79l.22-.23q19.92,0,34,4.31t22.87,12.22A46.81,46.81,0,0,1,993,148.75a74.48,74.48,0,0,1,4.08,25.37,127,127,0,0,1-.91,14.72,157.13,157.13,0,0,1-2.72,15.85l-6.34,29.66H912.37l6.34-29.44a28.81,28.81,0,0,0,.68-6.56,16.88,16.88,0,0,0-2.26-8.5q-2.26-3.94-9.06-4.18a15.53,15.53,0,0,0-8.15,2,17.91,17.91,0,0,0-5.55,5.1,28.46,28.46,0,0,0-3.4,6.34,53.62,53.62,0,0,0-1.92,6l-36.46,171.2a22.05,22.05,0,0,0-.68,3.29,26.65,26.65,0,0,0-.23,3.51,16.59,16.59,0,0,0,2.38,8.72q2.37,4,9.4,4a15.11,15.11,0,0,0,7.81-1.93,20.85,20.85,0,0,0,5.55-4.64,21.23,21.23,0,0,0,3.51-5.89,47.51,47.51,0,0,0,1.92-5.88l6.34-30.35Z"/><path d="M1131.14,191.33l-57.75,272h-75l57.75-272h-51l15.4-72.7h177.09l-15.4,72.7Z"/><path d="M1139.75,463.3l73.38-344.67h74.5L1214.26,463.3Z"/><path d="M1503.68,118.41,1378.22,463.3h-96.69l21.28-344.89h75L1354,349.62l74.73-231.21Z"/><path d="M1445.94,463.3l73.37-344.67h159.2l-15.39,72.7h-84.93l-13.13,61.82h69.3l-15.63,72.69h-69.07l-13.81,65h84.69l-15.4,72.46Z"/><path class="cls-1" d="M180.8,179.45l9.31,51.25a12.87,12.87,0,0,0,12.81,10.61h40.67c10.54,0,16.56,11.39,10.85,20.53L181.75,378.12a14.74,14.74,0,0,1-6.79,5.77L87.88,420.28A14.62,14.62,0,0,0,79,432.39l-4.68,54.17A13,13,0,0,0,91.74,500l125.42-42.3a14.69,14.69,0,0,0,7.33-5.5l30.32-43.37a14.51,14.51,0,0,1,11.8-6.24h78.61a12.9,12.9,0,0,1,11.58,7l33.34,64.74a12.92,12.92,0,0,0,11.58,7h59.16c10.49,0,17.65-11.31,12.95-20.45l-67.42-131a12.91,12.91,0,0,0-11.58-7H330.72c-10.53,0-16.55-11.38-10.86-20.52l33.79-54.17a13.77,13.77,0,0,0,.69-13.63l-33.92-65a12.91,12.91,0,0,0-11.54-6.89H195A14.49,14.49,0,0,0,180.8,179.45Z"/><path class="cls-1" d="M401.35,80.71H325a4.81,4.81,0,0,0-4.75,4.52l-3.83,76.32a4.25,4.25,0,0,0,4.29,4.52h76.32a4.8,4.8,0,0,0,4.74-4.52l3.84-76.32A4.26,4.26,0,0,0,401.35,80.71Z"/></svg>